# Blender v2.93.5 OBJ File: ''
# www.blender.org
mtllib jumobj.mtl
o Cube
v 0.274464 0.752268 -2.647025
v 1.043832 -1.172766 -1.139107
v 0.875369 0.702644 1.648691
v 0.752021 -1.051351 0.891898
v -1.000000 1.000000 -1.000000
v -1.733352 -1.146804 -1.251295
v -1.000000 1.000000 1.000000
v -0.919927 -1.263069 0.732663
v 0.937871 -1.026904 1.296042
v 1.458839 -0.726163 -1.674166
v 1.290377 1.149248 1.113632
v 1.299661 -0.522030 0.687441
v -0.584992 1.446604 -1.535059
v -1.318345 -0.700200 -1.786353
v -0.584992 1.446604 0.464941
v 1.595853 -0.578718 -1.850815
v 1.427391 1.296693 0.936983
v 1.436675 -0.374585 0.510792
v -0.447978 1.594049 -1.711707
v -1.181331 -0.552755 -1.963002
v -0.447978 1.594049 0.288293
vt 0.625000 1.000000
vt 0.625000 0.750000
vt 0.625000 0.750000
vt 0.625000 1.000000
vt 0.375000 0.750000
vt 0.375000 1.000000
vt 0.375000 0.000000
vt 0.625000 0.000000
vt 0.625000 0.250000
vt 0.375000 0.250000
vt 0.125000 0.500000
vt 0.375000 0.500000
vt 0.125000 0.750000
vt 0.125000 0.500000
vt 0.375000 0.500000
vt 0.625000 0.250000
vt 0.375000 0.250000
vt 0.375000 0.750000
vt 0.375000 0.750000
vt 0.625000 0.750000
vt 0.625000 1.000000
vt 0.625000 0.000000
vt 0.625000 0.000000
vt 0.625000 0.250000
vt 0.625000 0.500000
vt 0.875000 0.500000
vt 0.875000 0.750000
vt 0.375000 0.500000
vt 0.375000 0.250000
vt 0.125000 0.500000
vn -0.6471 0.3979 0.6503
vn 0.2307 0.1529 0.9609
vn 0.4735 0.4118 0.7786
vn -0.4549 0.8248 0.3356
vn 0.3197 -0.7404 0.5911
vn -0.5445 -0.6624 0.5146
vn -0.8975 0.4320 -0.0885
vn -0.7793 -0.5598 -0.2817
vn 0.3676 -0.9076 -0.2027
vn -0.6052 -0.3139 -0.7315
vn 0.4723 -0.8254 -0.3091
vn -0.8253 0.5284 -0.1990
vn 0.8114 -0.4174 0.4092
vn 0.9700 -0.1727 0.1709
vn 0.6794 0.6634 0.3134
vn -0.2257 0.9623 0.1513
vn -0.2497 0.8142 -0.5241
vn 0.3097 0.3536 -0.8826
vn 0.7475 -0.2821 -0.6014
vn -0.5325 -0.2629 -0.8046
usemtl Material
s 1
f 7/1/1 3/2/2 11/3/3 15/4/4
f 4/5/5 3/2/2 7/1/1 8/6/6
f 8/7/6 7/8/1 5/9/7 6/10/8
f 6/11/8 2/12/9 4/5/5 8/13/6
f 2/12/9 6/11/8 14/14/10 10/15/11
f 6/10/8 5/9/7 13/16/12 14/17/10
f 11/3/3 12/18/13 18/19/14 17/20/15
f 15/4/4 11/3/3 17/20/15 21/21/16
f 13/16/12 15/22/4 21/23/16 19/24/17
f 3/2/2 4/5/5 12/18/13 11/3/3
f 4/5/5 2/12/9 10/15/11 12/18/13
f 5/9/7 7/8/1 15/22/4 13/16/12
f 1/25/18 19/26/17 21/27/16 17/20/15
f 16/28/19 1/25/18 17/20/15 18/19/14
f 20/29/20 19/24/17 1/25/18 16/28/19
f 10/15/11 14/14/10 20/30/20 16/28/19
f 14/17/10 13/16/12 19/24/17 20/29/20
f 12/18/13 10/15/11 16/28/19 18/19/14
l 4 9
