# Blender v2.93.5 OBJ File: ''
# www.blender.org
mtllib untitled.mtl
o Cube
v 1.026657 0.691281 -1.025592
v 1.158918 -1.201257 -0.612777
v 0.848728 0.950858 2.259563
v 1.337819 -1.059182 0.505320
v -1.521579 0.563596 -1.252154
v -0.820860 -1.032947 -0.862223
v -1.673283 0.429026 1.182932
v -0.792791 -1.115950 0.981311
vt 0.625000 0.500000
vt 0.875000 0.500000
vt 0.875000 0.750000
vt 0.625000 0.750000
vt 0.375000 0.750000
vt 0.625000 1.000000
vt 0.375000 1.000000
vt 0.375000 0.000000
vt 0.625000 0.000000
vt 0.625000 0.250000
vt 0.375000 0.250000
vt 0.125000 0.500000
vt 0.375000 0.500000
vt 0.125000 0.750000
vn -0.1198 0.9924 -0.0286
vn -0.0502 -0.4962 0.8668
vn -0.8910 -0.4514 -0.0487
vn -0.0259 -0.9994 0.0217
vn 0.9866 0.1623 -0.0150
vn 0.1007 -0.2002 -0.9746
usemtl Material
s off
f 1/1/1 5/2/1 7/3/1 3/4/1
f 4/5/2 3/4/2 7/6/2 8/7/2
f 8/8/3 7/9/3 5/10/3 6/11/3
f 6/12/4 2/13/4 4/5/4 8/14/4
f 2/13/5 1/1/5 3/4/5 4/5/5
f 6/11/6 5/10/6 1/1/6 2/13/6
